<svg width="46" height="216" viewBox="0 0 46 216" fill="none" xmlns="http://www.w3.org/2000/svg">
<path d="M33.8717 3.86048C34.4872 3.39814 35.3724 3.77547 35.4651 4.53967L36.5474 13.4671C36.64 14.2313 35.8707 14.8092 35.1625 14.5073L26.89 10.981C26.1819 10.6791 26.066 9.72386 26.6815 9.26152L33.8717 3.86048Z" fill="#F54748"/>
<path d="M30.3259 167.762L30.9582 166.987L30.3259 167.762ZM30.3259 202.302L30.3064 203.301L30.3259 202.302ZM5.04586 213.981C5.52557 213.707 5.69261 213.096 5.41894 212.617C5.14527 212.137 4.53454 211.97 4.05482 212.244L5.04586 213.981ZM10.8105 207.978C10.3558 208.291 10.2414 208.914 10.5549 209.369C10.8683 209.823 11.4911 209.938 11.9458 209.624L10.8105 207.978ZM18.478 204.745C18.9074 204.397 18.9738 203.768 18.6265 203.338C18.2791 202.909 17.6494 202.843 17.22 203.19L18.478 204.745ZM23.2012 197.906C22.8051 198.291 22.7958 198.924 23.1806 199.32C23.5654 199.717 24.1985 199.726 24.5947 199.341L23.2012 197.906ZM30.1201 193.292C30.4636 192.86 30.3915 192.231 29.959 191.887C29.5265 191.544 28.8975 191.616 28.554 192.048L30.1201 193.292ZM32.8012 185.46C32.561 185.957 32.7694 186.555 33.2667 186.796C33.764 187.036 34.3619 186.827 34.6021 186.33L32.8012 185.46ZM36.7027 178.145C36.7037 177.593 36.2569 177.144 35.7046 177.143C35.1523 177.142 34.7037 177.589 34.7027 178.141L36.7027 178.145ZM32.349 171.246C32.6829 171.686 33.3102 171.772 33.7501 171.438C34.1901 171.104 34.2761 170.477 33.9423 170.037L32.349 171.246ZM27.0615 164.855C26.5333 164.694 25.9744 164.991 25.8131 165.519C25.6519 166.048 25.9494 166.607 26.4776 166.768L27.0615 164.855ZM19.4289 167.767C19.9102 167.496 20.0808 166.887 19.8099 166.405C19.5391 165.924 18.9294 165.753 18.448 166.024L19.4289 167.767ZM12.2385 171.861C11.921 172.313 12.03 172.937 12.4819 173.254C12.9338 173.572 13.5575 173.463 13.875 173.011L12.2385 171.861ZM10.5365 180.029C10.6874 179.498 10.379 178.945 9.84776 178.794C9.31648 178.643 8.76348 178.952 8.61261 179.483L10.5365 180.029ZM7.87757 187.938C7.94615 188.486 8.44599 188.875 8.994 188.806C9.54201 188.737 9.93067 188.238 9.86209 187.69L7.87757 187.938ZM12.6974 194.627C12.3542 194.194 11.7252 194.121 11.2925 194.465C10.8597 194.808 10.7871 195.437 11.1303 195.869L12.6974 194.627ZM18.0016 200.969C18.5086 201.188 19.0971 200.955 19.3161 200.448C19.5351 199.941 19.3016 199.352 18.7946 199.133L18.0016 200.969ZM26.358 201.041C25.8093 200.977 25.313 201.37 25.2494 201.919C25.1857 202.468 25.5789 202.964 26.1275 203.028L26.358 201.041ZM34.7091 202.746C35.2382 202.588 35.5386 202.03 35.3802 201.501C35.2218 200.972 34.6645 200.672 34.1354 200.83L34.7091 202.746ZM39.7908 196.224C39.5087 196.699 39.6649 197.312 40.1397 197.594C40.6145 197.876 41.2281 197.72 41.5102 197.245L39.7908 196.224ZM44.2785 189.184C44.3768 188.64 44.0159 188.12 43.4725 188.022C42.929 187.923 42.4087 188.284 42.3105 188.828L44.2785 189.184ZM43.061 180.782C43.0467 181.334 43.4827 181.793 44.0348 181.807C44.5869 181.821 45.046 181.385 45.0603 180.833L43.061 180.782ZM44.9116 172.569C44.8816 172.017 44.4101 171.595 43.8587 171.625C43.3072 171.655 42.8845 172.126 42.9146 172.678L44.9116 172.569ZM42.2537 164.507C42.3106 165.056 42.802 165.455 43.3514 165.398C43.9007 165.342 44.3 164.85 44.2431 164.301L42.2537 164.507ZM43.2531 156.083C43.1791 155.536 42.6754 155.152 42.1281 155.226C41.5808 155.3 41.1971 155.804 41.2712 156.351L43.2531 156.083ZM40.0845 148.25C40.1697 148.796 40.6812 149.169 41.2269 149.084C41.7725 148.998 42.1458 148.487 42.0605 147.941L40.0845 148.25ZM40.7299 139.813C40.6373 139.269 40.1208 138.902 39.5763 138.995C39.0319 139.088 38.6656 139.604 38.7582 140.148L40.7299 139.813ZM37.3435 132.051C37.4406 132.595 37.96 132.957 38.5037 132.86C39.0474 132.763 39.4095 132.243 39.3124 131.7L37.3435 132.051ZM37.8468 123.597C37.7475 123.054 37.2267 122.694 36.6834 122.793C36.1401 122.892 35.7801 123.413 35.8793 123.956L37.8468 123.597ZM34.3971 115.861C34.4966 116.404 35.0175 116.764 35.5608 116.665C36.1041 116.565 36.4639 116.044 36.3645 115.501L34.3971 115.861ZM34.8932 107.406C34.7953 106.863 34.2754 106.501 33.7318 106.599C33.1883 106.697 32.8269 107.217 32.9248 107.761L34.8932 107.406ZM31.4882 99.6509C31.5828 100.195 32.1005 100.56 32.6446 100.465C33.1888 100.37 33.5532 99.8527 33.4587 99.3086L31.4882 99.6509ZM32.0872 91.2036C31.9978 90.6586 31.4834 90.2893 30.9385 90.3788C30.3935 90.4682 30.0242 90.9825 30.1136 91.5275L32.0872 91.2036ZM28.8288 83.3863C28.9112 83.9324 29.4207 84.3084 29.9668 84.226C30.5129 84.1436 30.8888 83.6341 30.8064 83.088L28.8288 83.3863ZM29.6475 74.9592C29.5745 74.4118 29.0714 74.0273 28.524 74.1003C27.9766 74.1734 27.5921 74.6765 27.6651 75.2239L29.6475 74.9592ZM26.6599 67.0377C26.7209 67.5866 27.2154 67.982 27.7643 67.921C28.3132 67.86 28.7087 67.3655 28.6476 66.8166L26.6599 67.0377ZM27.8522 58.6624C27.8067 58.112 27.3236 57.7028 26.7732 57.7483C26.2228 57.7938 25.8135 58.2769 25.8591 58.8273L27.8522 58.6624ZM25.322 50.5963C25.3475 51.148 25.8154 51.5745 26.3671 51.549C26.9188 51.5235 27.3454 51.0556 27.3199 50.5039L25.322 50.5963ZM27.1281 42.3064C27.129 41.7541 26.682 41.3057 26.1298 41.3048C25.5775 41.3038 25.129 41.7508 25.1281 42.3031L27.1281 42.3064ZM25.395 34.0019C25.3587 34.553 25.7759 35.0292 26.327 35.0656C26.8781 35.102 27.3543 34.6847 27.3907 34.1336L25.395 34.0019ZM28.2641 26.0576C28.3492 25.5119 27.9759 25.0005 27.4302 24.9154C26.8845 24.8303 26.3731 25.2037 26.288 25.7494L28.2641 26.0576ZM28.0665 17.5931C27.9125 18.1234 28.2175 18.6783 28.7479 18.8323C29.2782 18.9864 29.8331 18.6813 29.9871 18.151L28.0665 17.5931ZM1.43828 215.899C2.54695 215.358 3.75967 214.714 5.04586 213.981L4.05482 212.244C2.80024 212.959 1.62594 213.582 0.561721 214.101L1.43828 215.899ZM11.9458 209.624C14.0964 208.141 16.3064 206.502 18.478 204.745L17.22 203.19C15.0906 204.913 12.9218 206.522 10.8105 207.978L11.9458 209.624ZM24.5947 199.341C26.5966 197.397 28.4719 195.367 30.1201 193.292L28.554 192.048C26.9687 194.044 25.1538 196.01 23.2012 197.906L24.5947 199.341ZM34.6021 186.33C35.9115 183.619 36.6975 180.86 36.7027 178.145L34.7027 178.141C34.6982 180.475 34.0207 182.936 32.8012 185.46L34.6021 186.33ZM33.9423 170.037C33.1348 168.973 32.1436 167.955 30.9582 166.987L29.6935 168.537C30.7696 169.415 31.6471 170.321 32.349 171.246L33.9423 170.037ZM30.9582 166.987C29.7077 165.967 28.3999 165.264 27.0615 164.855L26.4776 166.768C27.5463 167.094 28.6262 167.665 29.6935 168.537L30.9582 166.987ZM18.448 166.024C16.09 167.351 13.9606 169.41 12.2385 171.861L13.875 173.011C15.4629 170.75 17.3821 168.919 19.4289 167.767L18.448 166.024ZM8.61261 179.483C7.83071 182.236 7.52687 185.136 7.87757 187.938L9.86209 187.69C9.54963 185.193 9.81629 182.565 10.5365 180.029L8.61261 179.483ZM11.1303 195.869C12.7691 197.936 15.0337 199.687 18.0016 200.969L18.7946 199.133C16.1024 197.97 14.1134 196.413 12.6974 194.627L11.1303 195.869ZM26.1275 203.028C27.4404 203.18 28.8324 203.273 30.3064 203.301L30.3453 201.302C28.9305 201.274 27.6027 201.185 26.358 201.041L26.1275 203.028ZM30.3064 203.301C31.9033 203.332 33.3701 203.147 34.7091 202.746L34.1354 200.83C33.0206 201.164 31.7633 201.329 30.3453 201.302L30.3064 203.301ZM41.5102 197.245C42.8195 195.041 43.712 192.316 44.2785 189.184L42.3105 188.828C41.7706 191.813 40.9397 194.29 39.7908 196.224L41.5102 197.245ZM45.0603 180.833C45.127 178.25 45.0708 175.487 44.9116 172.569L42.9146 172.678C43.0715 175.554 43.126 178.263 43.061 180.782L45.0603 180.833ZM44.2431 164.301C43.9689 161.652 43.6352 158.908 43.2531 156.083L41.2712 156.351C41.651 159.159 41.982 161.882 42.2537 164.507L44.2431 164.301ZM42.0605 147.941C41.6452 145.284 41.1991 142.571 40.7299 139.813L38.7582 140.148C39.2262 142.9 39.6708 145.603 40.0845 148.25L42.0605 147.941ZM39.3124 131.7C38.8356 129.028 38.3448 126.325 37.8468 123.597L35.8793 123.956C36.3771 126.683 36.8673 129.383 37.3435 132.051L39.3124 131.7ZM36.3645 115.501C35.8731 112.815 35.3807 110.115 34.8932 107.406L32.9248 107.761C33.4128 110.472 33.9056 113.175 34.3971 115.861L36.3645 115.501ZM33.4587 99.3086C32.9889 96.6047 32.5299 93.9007 32.0872 91.2036L30.1136 91.5275C30.5574 94.2318 31.0176 96.9421 31.4882 99.6509L33.4587 99.3086ZM30.8064 83.088C30.3949 80.3605 30.0066 77.6484 29.6475 74.9592L27.6651 75.2239C28.0258 77.9256 28.4158 80.6491 28.8288 83.3863L30.8064 83.088ZM28.6476 66.8166C28.3412 64.0614 28.0738 61.3404 27.8522 58.6624L25.8591 58.8273C26.0823 61.526 26.3517 64.2658 26.6599 67.0377L28.6476 66.8166ZM27.3199 50.5039C27.1905 47.7052 27.1236 44.969 27.1281 42.3064L25.1281 42.3031C25.1236 45.0012 25.1913 47.7695 25.322 50.5963L27.3199 50.5039ZM27.3907 34.1336C27.576 31.3257 27.8632 28.6286 28.2641 26.0576L26.288 25.7494C25.8768 28.3865 25.5837 31.1431 25.395 34.0019L27.3907 34.1336ZM29.9871 18.151C30.3687 16.8374 30.792 15.5726 31.2591 14.3593L29.3926 13.6407C28.9037 14.9108 28.4626 16.2294 28.0665 17.5931L29.9871 18.151Z" fill="#FDC55E"/>
</svg>
